<svg width="358" height="100" viewBox="0 0 358 100" fill="none" xmlns="http://www.w3.org/2000/svg">
<circle cx="100" cy="100" r="100" fill="#2C6269"/>
<rect x="358" y="43" width="43" height="43" transform="rotate(180 358 43)" fill="#79C8C7"/>
<path fill-rule="evenodd" clip-rule="evenodd" d="M233.513 200C288.742 200 333.513 155.228 333.513 100C333.513 44.7715 288.742 0 233.513 0C178.285 0 133.513 44.7715 133.513 100C133.513 155.228 178.285 200 233.513 200ZM233.513 133C251.739 133 266.513 118.225 266.513 100C266.513 81.7746 251.739 67 233.513 67C215.288 67 200.513 81.7746 200.513 100C200.513 118.225 215.288 133 233.513 133Z" fill="#F67E7E"/>
<path fill-rule="evenodd" clip-rule="evenodd" d="M100 0H0V4H100V0ZM100 8H0V12H100V8ZM0 16H100V20H0V16ZM100 24H0V28H100V24ZM0 32H100V36H0V32ZM100 40H0V44H100V40Z" fill="#79C8C7"/>
</svg>
